HIERARCHY
ROOT Hips
{
    OFFSET 0.000000 0.000000 0.000000
    CHANNELS 6 Xposition Yposition Zposition Zrotation Xrotation Yrotation
    JOINT Spine
    {
        OFFSET -0.000000 14.517291 0.000000
        CHANNELS 3 Zrotation Xrotation Yrotation
        JOINT Spine1
        {
            OFFSET -0.000000 37.558300 0.000000
            CHANNELS 3 Zrotation Xrotation Yrotation
            JOINT Neck
            {
                OFFSET -0.000000 37.404057 3.400369
                CHANNELS 3 Zrotation Xrotation Yrotation
                JOINT Head
                {
                    OFFSET -0.000000 24.785618 -3.540803
                    CHANNELS 3 Zrotation Xrotation Yrotation
                    End Site
                    {
                        OFFSET -0.000000 35.408028 0.000000
                    }
                }
            }
            JOINT LeftShoulder
            {
                OFFSET 6.992933 33.973492 -0.192664
                CHANNELS 3 Zrotation Xrotation Yrotation
                JOINT LeftArm
                {
                    OFFSET 21.527611 0.000000 0.000000
                    CHANNELS 3 Zrotation Xrotation Yrotation
                    JOINT LeftForeArm
                    {
                        OFFSET 56.353916 0.000000 0.000000
                        CHANNELS 3 Zrotation Xrotation Yrotation
                        JOINT LeftHand
                        {
                            OFFSET 47.774071 0.000000 0.000000
                            CHANNELS 3 Zrotation Xrotation Yrotation
                            End Site
                            {
                                OFFSET 26.556021 0.000000 0.000000
                            }
                        }
                    }
                }
            }
            JOINT RightShoulder
            {
                OFFSET -7.065357 33.973492 -0.192664
                CHANNELS 3 Zrotation Xrotation Yrotation
                JOINT RightArm
                {
                    OFFSET -21.527611 0.000000 0.000000
                    CHANNELS 3 Zrotation Xrotation Yrotation
                    JOINT RightForeArm
                    {
                        OFFSET -56.353916 0.000000 0.000000
                        CHANNELS 3 Zrotation Xrotation Yrotation
                        JOINT RightHand
                        {
                            OFFSET -47.774071 0.000000 0.000000
                            CHANNELS 3 Zrotation Xrotation Yrotation
                            End Site
                            {
                                OFFSET -26.556021 0.000000 0.000000
                            }
                        }
                    }
                }
            }
        }
    }
    JOINT LeftUpLeg
    {
        OFFSET 17.704014 0.000000 0.000000
        CHANNELS 3 Zrotation Xrotation Yrotation
        JOINT LeftLeg
        {
            OFFSET -0.000000 -81.181816 0.000000
            CHANNELS 3 Zrotation Xrotation Yrotation
            JOINT LeftFoot
            {
                OFFSET -0.000000 -62.821102 0.000000
                CHANNELS 3 Zrotation Xrotation Yrotation
                JOINT LeftToeBase
                {
                    OFFSET -0.000000 -11.507608 26.556021
                    CHANNELS 3 Zrotation Xrotation Yrotation
                    End Site
                    {
                        OFFSET -0.000000 0.000000 7.081605
                    }
                }
            }
        }
    }
    JOINT RightUpLeg
    {
        OFFSET -17.704014 0.000000 0.000000
        CHANNELS 3 Zrotation Xrotation Yrotation
        JOINT RightLeg
        {
            OFFSET -0.000000 -81.181816 0.000000
            CHANNELS 3 Zrotation Xrotation Yrotation
            JOINT RightFoot
            {
                OFFSET -0.000000 -62.821102 0.000000
                CHANNELS 3 Zrotation Xrotation Yrotation
                JOINT RightToeBase
                {
                    OFFSET -0.000000 -11.507608 26.556021
                    CHANNELS 3 Zrotation Xrotation Yrotation
                    End Site
                    {
                        OFFSET -0.000000 0.000000 7.081605
                    }
                }
            }
        }
    }
}
MOTION
Frames:    12
Frame Time:    0.008333
-27.562326    173.049240    -27.307970    -15.826838    -19.280388    44.397194    4.708332    1.561798    -6.147235    4.314813    0.181137    -2.035127    24.419630    -3.099898    0.844246    -3.447868    -2.375965    -4.048862    11.462827    7.592842    -23.213997    -33.816193    20.181684    -53.340641    -3.747432    -26.631441    -107.757507    -6.776905    -30.583134    -10.740951    11.055956    1.255993    -7.347571    23.955881    -2.604832    35.936321    -21.656191    -7.585822    59.139435    -4.802815    3.494731    32.036831    25.129442    -3.975171    4.818035    -2.134192    14.182343    -15.210270    1.482084    -3.644222    29.902929    0.000000    0.000000    0.000000    -91.236115    -46.475742    -54.048946    7.661054    19.501411    -7.826035    11.583003    19.890207    -20.290085    0.000000    0.000000    0.000000    
-27.604044    173.034332    -27.304375    -15.797017    -19.297171    44.410397    4.685730    1.582634    -6.154334    4.333765    0.202634    -2.038167    24.446594    -3.105703    0.852621    -3.480575    -2.364974    -4.051404    11.475320    7.595431    -23.217031    -33.801712    20.160425    -53.364727    -3.741903    -26.647346    -107.772964    -6.731772    -30.596746    -10.744075    11.048243    1.244436    -7.344057    23.958469    -2.614716    35.922966    -21.633244    -7.587986    59.146233    -4.786252    3.486101    32.020626    25.148087    -4.019338    4.768785    -2.180212    14.315961    -15.224839    1.521294    -3.682988    29.968048    0.000000    0.000000    0.000000    -91.219772    -46.486835    -54.063446    7.629177    19.508833    -7.774212    11.559988    19.897755    -20.249676    0.000000    0.000000    0.000000    
-27.656687    173.014969    -27.300507    -15.778619    -19.312262    44.417027    4.671402    1.602751    -6.155861    4.348789    0.214230    -2.038937    24.447176    -3.095182    0.843778    -3.471707    -2.371009    -4.057158    11.477462    7.598067    -23.223988    -33.756313    20.169075    -53.390572    -3.699851    -26.720673    -107.770576    -6.779180    -30.612017    -10.773961    11.051355    1.234027    -7.339951    23.946432    -2.607301    35.900894    -21.648611    -7.602415    59.135262    -4.785644    3.476206    32.061550    25.176222    -4.080101    4.748039    -2.212877    14.468414    -15.256907    1.550604    -3.734318    30.011864    0.000000    0.000000    0.000000    -91.213333    -46.498978    -54.064526    7.619139    19.506214    -7.761539    11.561015    19.915060    -20.229116    0.000000    0.000000    0.000000    
-27.701591    172.998901    -27.291822    -15.752295    -19.349619    44.420956    4.667316    1.633015    -6.155279    4.361790    0.245301    -2.039600    24.462387    -3.076967    0.850902    -3.479261    -2.406315    -4.050804    11.488111    7.605043    -23.219543    -33.729832    20.142174    -53.410736    -3.543358    -26.686357    -107.667831    -6.782499    -30.370960    -11.055457    11.058290    1.221104    -7.326700    23.924725    -2.622991    35.874157    -21.622711    -7.607408    59.152584    -4.801570    3.456880    32.036976    25.217848    -4.109333    4.717059    -2.252383    14.605977    -15.274270    1.599911    -3.773905    30.039396    0.000000    0.000000    0.000000    -91.167274    -46.514702    -54.049114    7.601939    19.507711    -7.715951    11.571123    19.920483    -20.216612    0.000000    0.000000    0.000000    
-27.746517    172.974686    -27.286324    -15.725530    -19.378389    44.431690    4.669155    1.655784    -6.153642    4.359176    0.279303    -2.040029    24.482840    -3.066343    0.853971    -3.501798    -2.438249    -4.053688    11.500513    7.594271    -23.237774    -33.720097    20.120470    -53.413128    -3.529835    -26.705015    -107.685425    -6.801395    -30.371645    -11.077980    11.065554    1.211008    -7.331003    23.910007    -2.641546    35.862404    -21.611942    -7.603924    59.159847    -4.824057    3.449607    32.031746    25.254047    -4.153611    4.691172    -2.298664    14.759853    -15.313026    1.635523    -3.839420    30.091934    0.000000    0.000000    0.000000    -91.144157    -46.521503    -54.053513    7.591353    19.513680    -7.719970    11.563058    19.931564    -20.171211    0.000000    0.000000    0.000000    
-27.782089    172.953690    -27.275049    -15.689657    -19.435047    44.437695    4.688919    1.694567    -6.152061    4.353270    0.323307    -2.040562    24.516220    -3.040808    0.861044    -3.543307    -2.480020    -4.054881    11.505471    7.588889    -23.242495    -33.712505    20.094149    -53.424072    -3.526871    -26.720949    -107.697075    -6.831659    -30.380381    -11.106492    11.068058    1.198898    -7.315112    23.891132    -2.650090    35.836884    -21.617104    -7.612985    59.150879    -4.820388    3.439937    32.082157    25.301018    -4.164222    4.678743    -2.338785    14.909487    -15.379257    1.694177    -3.899482    30.152250    0.000000    0.000000    0.000000    -91.071854    -46.530926    -54.018063    7.577304    19.516989    -7.688670    11.546965    19.931206    -20.155403    0.000000    0.000000    0.000000    
-27.820858    172.923508    -27.267277    -15.653996    -19.480499    44.449032    4.712200    1.735900    -6.151928    4.334501    0.351581    -2.040851    24.541258    -3.034628    0.865901    -3.578167    -2.490711    -4.059129    11.507032    7.593513    -23.253080    -33.693535    20.063177    -53.430656    -3.525367    -26.734945    -107.720795    -6.825127    -30.394245    -11.111653    11.072926    1.202933    -7.310320    23.884167    -2.703314    35.826420    -21.583977    -7.577785    59.172550    -4.843227    3.456382    32.046329    25.339291    -4.189248    4.653866    -2.382031    15.064336    -15.397120    1.757928    -3.963892    30.178604    0.000000    0.000000    0.000000    -91.029251    -46.529499    -53.995068    7.578877    19.523327    -7.693220    11.552604    19.930250    -20.145256    0.000000    0.000000    0.000000    
-27.852844    172.895187    -27.253160    -15.605868    -19.548813    44.466137    4.731162    1.795266    -6.152527    4.330973    0.390326    -2.041636    24.564243    -3.014206    0.868423    -3.609082    -2.523177    -4.062266    11.517733    7.591074    -23.255442    -33.697468    20.035189    -53.452766    -3.535548    -26.739653    -107.738808    -6.837793    -30.410902    -11.118772    11.081038    1.193766    -7.303115    23.852066    -2.714936    35.809074    -21.590868    -7.577312    59.155975    -4.845305    3.455493    32.058899    25.380972    -4.199159    4.647667    -2.403091    15.216615    -15.467287    1.994890    -3.958211    30.172489    0.000000    0.000000    0.000000    -90.946136    -46.521912    -53.936001    7.578585    19.529434    -7.695036    11.549167    19.901129    -20.129526    0.000000    0.000000    0.000000    
-27.886900    172.852798    -27.245785    -15.559094    -19.586109    44.474522    4.723953    1.834158    -6.140604    4.339568    0.423698    -2.038475    24.572853    -2.990336    0.865599    -3.628898    -2.558022    -4.065862    11.521492    7.592288    -23.275381    -33.712032    20.001909    -53.458431    -3.533998    -26.742798    -107.748253    -6.866138    -30.408497    -11.154560    11.072442    1.185730    -7.297947    23.835867    -2.740852    35.784893    -21.580143    -7.555829    59.155926    -4.849328    3.470282    32.043156    25.397869    -4.226318    4.632652    -2.421806    15.389059    -15.523391    2.043514    -4.051396    30.220125    0.000000    0.000000    0.000000    -90.924934    -46.521000    -53.917152    7.589638    19.534458    -7.710560    11.519845    19.889643    -20.105612    0.000000    0.000000    0.000000    
-27.915281    172.809692    -27.237576    -15.507314    -19.623310    44.488098    4.723811    1.876833    -6.139786    4.338323    0.454821    -2.038787    24.572674    -2.965296    0.866778    -3.637392    -2.586833    -4.061395    11.519770    7.591121    -23.275419    -33.715763    19.985163    -53.470947    -3.530414    -26.756857    -107.764359    -6.879928    -30.418041    -11.151728    11.062646    1.171747    -7.280277    23.825319    -2.771787    35.759983    -21.559254    -7.526917    59.145065    -4.847493    3.484474    32.053341    25.407785    -4.247632    4.602457    -2.444010    15.580310    -15.577535    1.908099    -4.230359    30.336586    0.000000    0.000000    0.000000    -90.899506    -46.511600    -53.916077    7.587215    19.540728    -7.702305    11.525900    19.863539    -20.117416    0.000000    0.000000    0.000000    
-27.943689    172.757904    -27.237612    -15.459975    -19.642447    44.489418    4.718118    1.919886    -6.126992    4.338116    0.457982    -2.034087    24.562956    -2.947208    0.864868    -3.640127    -2.587158    -4.058107    11.512649    7.604364    -23.282797    -33.717194    19.978708    -53.494358    -3.634233    -26.835653    -107.872566    -6.909435    -30.635344    -10.915426    11.050112    1.181091    -7.268301    23.799246    -2.769004    35.735012    -21.564535    -7.544074    59.120628    -4.807739    3.475492    32.055027    25.402971    -4.287297    4.614856    -2.455802    15.761188    -15.681266    1.970527    -4.325941    30.430454    0.000000    0.000000    0.000000    -90.911514    -46.519154    -53.950428    7.582467    19.551340    -7.722268    11.345702    19.870382    -20.002140    0.000000    0.000000    0.000000    
-27.973103    172.700928    -27.236631    -15.404312    -19.660955    44.482307    4.704843    1.954783    -6.107877    4.336866    0.486971    -2.028410    24.536146    -2.935841    0.859020    -3.618558    -2.584125    -4.053093    11.506782    7.600845    -23.287769    -33.733257    19.947952    -53.494064    -3.623956    -26.831215    -107.880905    -6.887317    -30.621456    -10.916204    11.029427    1.185810    -7.257944    23.784328    -2.775724    35.724762    -21.555962    -7.540771    59.108356    -4.812393    3.471849    31.997931    25.397659    -4.320816    4.619809    -2.477947    15.953980    -15.760324    2.050262    -4.428895    30.506920    0.000000    0.000000    0.000000    -90.921646    -46.531189    -53.967831    7.586078    19.545732    -7.737940    11.319559    19.876328    -19.994890    0.000000    0.000000    0.000000    
